<mxfile host="app.diagrams.net" agent="Mozilla/5.0 (Windows NT 10.0; Win64; x64) AppleWebKit/537.36 (KHTML, like Gecko) Chrome/137.0.0.0 Safari/537.36" version="27.0.5">
  <diagram name="Seite-1" id="Gkrq0ntTMFLMusmggNp5">
    <mxGraphModel dx="1985" dy="676" grid="1" gridSize="10" guides="1" tooltips="1" connect="1" arrows="1" fold="1" page="1" pageScale="1" pageWidth="827" pageHeight="1169" math="0" shadow="0">
      <root>
        <mxCell id="0" />
        <mxCell id="1" parent="0" />
        <mxCell id="m_i2i5Q3r4GWPXBIXabM-7" value="" style="edgeStyle=orthogonalEdgeStyle;rounded=0;orthogonalLoop=1;jettySize=auto;html=1;labelBackgroundColor=none;fontColor=default;strokeColor=#736CA8;" edge="1" parent="1" source="m_i2i5Q3r4GWPXBIXabM-1" target="m_i2i5Q3r4GWPXBIXabM-6">
          <mxGeometry relative="1" as="geometry" />
        </mxCell>
        <mxCell id="m_i2i5Q3r4GWPXBIXabM-9" value="" style="edgeStyle=orthogonalEdgeStyle;rounded=0;orthogonalLoop=1;jettySize=auto;html=1;labelBackgroundColor=none;fontColor=default;strokeColor=#736CA8;" edge="1" parent="1" source="m_i2i5Q3r4GWPXBIXabM-1" target="m_i2i5Q3r4GWPXBIXabM-8">
          <mxGeometry relative="1" as="geometry" />
        </mxCell>
        <mxCell id="m_i2i5Q3r4GWPXBIXabM-10" value="" style="edgeStyle=orthogonalEdgeStyle;rounded=0;orthogonalLoop=1;jettySize=auto;html=1;labelBackgroundColor=none;fontColor=default;strokeColor=#736CA8;" edge="1" parent="1" source="m_i2i5Q3r4GWPXBIXabM-1" target="m_i2i5Q3r4GWPXBIXabM-6">
          <mxGeometry relative="1" as="geometry" />
        </mxCell>
        <mxCell id="m_i2i5Q3r4GWPXBIXabM-12" value="" style="edgeStyle=orthogonalEdgeStyle;rounded=0;orthogonalLoop=1;jettySize=auto;html=1;labelBackgroundColor=none;fontColor=default;strokeColor=#736CA8;" edge="1" parent="1" source="m_i2i5Q3r4GWPXBIXabM-1" target="m_i2i5Q3r4GWPXBIXabM-11">
          <mxGeometry relative="1" as="geometry" />
        </mxCell>
        <mxCell id="m_i2i5Q3r4GWPXBIXabM-14" value="" style="edgeStyle=orthogonalEdgeStyle;rounded=0;orthogonalLoop=1;jettySize=auto;html=1;labelBackgroundColor=none;fontColor=default;strokeColor=#736CA8;" edge="1" parent="1" source="m_i2i5Q3r4GWPXBIXabM-1" target="m_i2i5Q3r4GWPXBIXabM-13">
          <mxGeometry relative="1" as="geometry" />
        </mxCell>
        <mxCell id="m_i2i5Q3r4GWPXBIXabM-15" value="" style="edgeStyle=orthogonalEdgeStyle;rounded=0;orthogonalLoop=1;jettySize=auto;html=1;labelBackgroundColor=none;fontColor=default;strokeColor=#736CA8;" edge="1" parent="1" source="m_i2i5Q3r4GWPXBIXabM-1" target="m_i2i5Q3r4GWPXBIXabM-13">
          <mxGeometry relative="1" as="geometry" />
        </mxCell>
        <mxCell id="m_i2i5Q3r4GWPXBIXabM-16" value="" style="edgeStyle=orthogonalEdgeStyle;rounded=0;orthogonalLoop=1;jettySize=auto;html=1;labelBackgroundColor=none;fontColor=default;strokeColor=#736CA8;" edge="1" parent="1" source="m_i2i5Q3r4GWPXBIXabM-1" target="m_i2i5Q3r4GWPXBIXabM-13">
          <mxGeometry relative="1" as="geometry" />
        </mxCell>
        <mxCell id="m_i2i5Q3r4GWPXBIXabM-17" value="" style="edgeStyle=orthogonalEdgeStyle;rounded=0;orthogonalLoop=1;jettySize=auto;html=1;labelBackgroundColor=none;fontColor=default;strokeColor=#736CA8;" edge="1" parent="1" source="m_i2i5Q3r4GWPXBIXabM-1" target="m_i2i5Q3r4GWPXBIXabM-13">
          <mxGeometry relative="1" as="geometry" />
        </mxCell>
        <mxCell id="m_i2i5Q3r4GWPXBIXabM-18" value="" style="edgeStyle=orthogonalEdgeStyle;rounded=0;orthogonalLoop=1;jettySize=auto;html=1;labelBackgroundColor=none;fontColor=default;strokeColor=#736CA8;" edge="1" parent="1" source="m_i2i5Q3r4GWPXBIXabM-1" target="m_i2i5Q3r4GWPXBIXabM-13">
          <mxGeometry relative="1" as="geometry" />
        </mxCell>
        <mxCell id="m_i2i5Q3r4GWPXBIXabM-20" value="" style="edgeStyle=orthogonalEdgeStyle;rounded=0;orthogonalLoop=1;jettySize=auto;html=1;labelBackgroundColor=none;fontColor=default;strokeColor=#736CA8;" edge="1" parent="1" source="m_i2i5Q3r4GWPXBIXabM-1" target="m_i2i5Q3r4GWPXBIXabM-19">
          <mxGeometry relative="1" as="geometry" />
        </mxCell>
        <mxCell id="m_i2i5Q3r4GWPXBIXabM-21" value="" style="edgeStyle=orthogonalEdgeStyle;rounded=0;orthogonalLoop=1;jettySize=auto;html=1;labelBackgroundColor=none;fontColor=default;strokeColor=#736CA8;" edge="1" parent="1" source="m_i2i5Q3r4GWPXBIXabM-1" target="m_i2i5Q3r4GWPXBIXabM-13">
          <mxGeometry relative="1" as="geometry" />
        </mxCell>
        <mxCell id="m_i2i5Q3r4GWPXBIXabM-23" value="" style="edgeStyle=orthogonalEdgeStyle;rounded=0;orthogonalLoop=1;jettySize=auto;html=1;labelBackgroundColor=none;fontColor=default;strokeColor=#736CA8;" edge="1" parent="1" source="m_i2i5Q3r4GWPXBIXabM-1" target="m_i2i5Q3r4GWPXBIXabM-22">
          <mxGeometry relative="1" as="geometry" />
        </mxCell>
        <mxCell id="m_i2i5Q3r4GWPXBIXabM-25" value="" style="edgeStyle=orthogonalEdgeStyle;rounded=0;orthogonalLoop=1;jettySize=auto;html=1;labelBackgroundColor=none;fontColor=default;strokeColor=#736CA8;" edge="1" parent="1" source="m_i2i5Q3r4GWPXBIXabM-1" target="m_i2i5Q3r4GWPXBIXabM-24">
          <mxGeometry relative="1" as="geometry" />
        </mxCell>
        <mxCell id="m_i2i5Q3r4GWPXBIXabM-29" value="" style="edgeStyle=orthogonalEdgeStyle;rounded=0;orthogonalLoop=1;jettySize=auto;html=1;labelBackgroundColor=none;fontColor=default;strokeColor=#736CA8;" edge="1" parent="1" source="m_i2i5Q3r4GWPXBIXabM-1" target="m_i2i5Q3r4GWPXBIXabM-28">
          <mxGeometry relative="1" as="geometry" />
        </mxCell>
        <mxCell id="m_i2i5Q3r4GWPXBIXabM-1" value="Kunde" style="rounded=1;whiteSpace=wrap;html=1;labelBackgroundColor=none;fillColor=#5D7F99;strokeColor=#D0CEE2;fontColor=#1A1A1A;" vertex="1" parent="1">
          <mxGeometry x="-610" y="470" width="120" height="60" as="geometry" />
        </mxCell>
        <mxCell id="m_i2i5Q3r4GWPXBIXabM-6" value="&lt;u&gt;KundenID&lt;/u&gt;" style="ellipse;whiteSpace=wrap;html=1;rounded=1;labelBackgroundColor=none;fillColor=#5D7F99;strokeColor=#D0CEE2;fontColor=#1A1A1A;" vertex="1" parent="1">
          <mxGeometry x="-710" y="360" width="120" height="30" as="geometry" />
        </mxCell>
        <mxCell id="m_i2i5Q3r4GWPXBIXabM-8" value="Name" style="ellipse;whiteSpace=wrap;html=1;rounded=1;labelBackgroundColor=none;fillColor=#5D7F99;strokeColor=#D0CEE2;fontColor=#1A1A1A;" vertex="1" parent="1">
          <mxGeometry x="-780" y="440" width="120" height="30" as="geometry" />
        </mxCell>
        <mxCell id="m_i2i5Q3r4GWPXBIXabM-11" value="Email" style="ellipse;whiteSpace=wrap;html=1;rounded=1;labelBackgroundColor=none;fillColor=#5D7F99;strokeColor=#D0CEE2;fontColor=#1A1A1A;" vertex="1" parent="1">
          <mxGeometry x="-530" y="360" width="110" height="30" as="geometry" />
        </mxCell>
        <mxCell id="m_i2i5Q3r4GWPXBIXabM-13" value="Ansprechpartner" style="ellipse;whiteSpace=wrap;html=1;rounded=1;labelBackgroundColor=none;fillColor=#5D7F99;strokeColor=#D0CEE2;fontColor=#1A1A1A;" vertex="1" parent="1">
          <mxGeometry x="-780" y="520" width="120" height="30" as="geometry" />
        </mxCell>
        <mxCell id="m_i2i5Q3r4GWPXBIXabM-19" value="Branche" style="ellipse;whiteSpace=wrap;html=1;rounded=1;labelBackgroundColor=none;fillColor=#5D7F99;strokeColor=#D0CEE2;fontColor=#1A1A1A;" vertex="1" parent="1">
          <mxGeometry x="-530" y="580" width="110" height="30" as="geometry" />
        </mxCell>
        <mxCell id="m_i2i5Q3r4GWPXBIXabM-22" value="Adresse" style="ellipse;whiteSpace=wrap;html=1;rounded=1;labelBackgroundColor=none;fillColor=#5D7F99;strokeColor=#D0CEE2;fontColor=#1A1A1A;" vertex="1" parent="1">
          <mxGeometry x="-670" y="580" width="110" height="20" as="geometry" />
        </mxCell>
        <mxCell id="m_i2i5Q3r4GWPXBIXabM-24" value="Telefonnummer" style="ellipse;whiteSpace=wrap;html=1;rounded=1;labelBackgroundColor=none;fillColor=#5D7F99;strokeColor=#D0CEE2;fontColor=#1A1A1A;" vertex="1" parent="1">
          <mxGeometry x="-600" y="610" width="100" height="30" as="geometry" />
        </mxCell>
        <mxCell id="m_i2i5Q3r4GWPXBIXabM-31" value="" style="edgeStyle=orthogonalEdgeStyle;rounded=0;orthogonalLoop=1;jettySize=auto;html=1;labelBackgroundColor=none;fontColor=default;strokeColor=#736CA8;" edge="1" parent="1" source="m_i2i5Q3r4GWPXBIXabM-28" target="m_i2i5Q3r4GWPXBIXabM-30">
          <mxGeometry relative="1" as="geometry" />
        </mxCell>
        <mxCell id="m_i2i5Q3r4GWPXBIXabM-28" value="bestellt" style="rhombus;whiteSpace=wrap;html=1;rounded=1;labelBackgroundColor=none;fillColor=#5D7F99;strokeColor=#D0CEE2;fontColor=#1A1A1A;" vertex="1" parent="1">
          <mxGeometry x="-390" y="460" width="180" height="80" as="geometry" />
        </mxCell>
        <mxCell id="m_i2i5Q3r4GWPXBIXabM-33" value="" style="edgeStyle=orthogonalEdgeStyle;rounded=0;orthogonalLoop=1;jettySize=auto;html=1;labelBackgroundColor=none;fontColor=default;strokeColor=#736CA8;" edge="1" parent="1" source="m_i2i5Q3r4GWPXBIXabM-30" target="m_i2i5Q3r4GWPXBIXabM-32">
          <mxGeometry relative="1" as="geometry" />
        </mxCell>
        <mxCell id="m_i2i5Q3r4GWPXBIXabM-51" value="" style="edgeStyle=orthogonalEdgeStyle;rounded=0;orthogonalLoop=1;jettySize=auto;html=1;labelBackgroundColor=none;fontColor=default;strokeColor=#736CA8;" edge="1" parent="1" source="m_i2i5Q3r4GWPXBIXabM-30" target="m_i2i5Q3r4GWPXBIXabM-50">
          <mxGeometry relative="1" as="geometry" />
        </mxCell>
        <mxCell id="m_i2i5Q3r4GWPXBIXabM-30" value="Dienstleistung" style="whiteSpace=wrap;html=1;rounded=1;labelBackgroundColor=none;fillColor=#5D7F99;strokeColor=#D0CEE2;fontColor=#1A1A1A;" vertex="1" parent="1">
          <mxGeometry x="-100" y="470" width="120" height="60" as="geometry" />
        </mxCell>
        <mxCell id="m_i2i5Q3r4GWPXBIXabM-35" value="" style="edgeStyle=orthogonalEdgeStyle;rounded=0;orthogonalLoop=1;jettySize=auto;html=1;labelBackgroundColor=none;fontColor=default;strokeColor=#736CA8;" edge="1" parent="1" source="m_i2i5Q3r4GWPXBIXabM-32" target="m_i2i5Q3r4GWPXBIXabM-34">
          <mxGeometry relative="1" as="geometry" />
        </mxCell>
        <mxCell id="m_i2i5Q3r4GWPXBIXabM-32" value="wird zugeteilt zu" style="rhombus;whiteSpace=wrap;html=1;rounded=1;labelBackgroundColor=none;fillColor=#5D7F99;strokeColor=#D0CEE2;fontColor=#1A1A1A;" vertex="1" parent="1">
          <mxGeometry x="-110" y="310" width="140" height="80" as="geometry" />
        </mxCell>
        <mxCell id="m_i2i5Q3r4GWPXBIXabM-37" value="" style="edgeStyle=orthogonalEdgeStyle;rounded=0;orthogonalLoop=1;jettySize=auto;html=1;labelBackgroundColor=none;fontColor=default;strokeColor=#736CA8;" edge="1" parent="1" source="m_i2i5Q3r4GWPXBIXabM-34" target="m_i2i5Q3r4GWPXBIXabM-36">
          <mxGeometry relative="1" as="geometry" />
        </mxCell>
        <mxCell id="m_i2i5Q3r4GWPXBIXabM-39" value="" style="edgeStyle=orthogonalEdgeStyle;rounded=0;orthogonalLoop=1;jettySize=auto;html=1;labelBackgroundColor=none;fontColor=default;strokeColor=#736CA8;" edge="1" parent="1" source="m_i2i5Q3r4GWPXBIXabM-34" target="m_i2i5Q3r4GWPXBIXabM-38">
          <mxGeometry relative="1" as="geometry" />
        </mxCell>
        <mxCell id="m_i2i5Q3r4GWPXBIXabM-41" value="" style="edgeStyle=orthogonalEdgeStyle;rounded=0;orthogonalLoop=1;jettySize=auto;html=1;labelBackgroundColor=none;fontColor=default;strokeColor=#736CA8;" edge="1" parent="1" source="m_i2i5Q3r4GWPXBIXabM-34" target="m_i2i5Q3r4GWPXBIXabM-40">
          <mxGeometry relative="1" as="geometry" />
        </mxCell>
        <mxCell id="m_i2i5Q3r4GWPXBIXabM-43" value="" style="edgeStyle=orthogonalEdgeStyle;rounded=0;orthogonalLoop=1;jettySize=auto;html=1;labelBackgroundColor=none;fontColor=default;strokeColor=#736CA8;" edge="1" parent="1" source="m_i2i5Q3r4GWPXBIXabM-34" target="m_i2i5Q3r4GWPXBIXabM-42">
          <mxGeometry relative="1" as="geometry" />
        </mxCell>
        <mxCell id="m_i2i5Q3r4GWPXBIXabM-45" value="" style="edgeStyle=orthogonalEdgeStyle;rounded=0;orthogonalLoop=1;jettySize=auto;html=1;labelBackgroundColor=none;fontColor=default;strokeColor=#736CA8;" edge="1" parent="1" source="m_i2i5Q3r4GWPXBIXabM-34" target="m_i2i5Q3r4GWPXBIXabM-44">
          <mxGeometry relative="1" as="geometry" />
        </mxCell>
        <mxCell id="m_i2i5Q3r4GWPXBIXabM-49" value="" style="edgeStyle=orthogonalEdgeStyle;rounded=0;orthogonalLoop=1;jettySize=auto;html=1;labelBackgroundColor=none;fontColor=default;strokeColor=#736CA8;" edge="1" parent="1" source="m_i2i5Q3r4GWPXBIXabM-34" target="m_i2i5Q3r4GWPXBIXabM-48">
          <mxGeometry relative="1" as="geometry" />
        </mxCell>
        <mxCell id="m_i2i5Q3r4GWPXBIXabM-34" value="Mitarbeiter" style="whiteSpace=wrap;html=1;rounded=1;labelBackgroundColor=none;fillColor=#5D7F99;strokeColor=#D0CEE2;fontColor=#1A1A1A;" vertex="1" parent="1">
          <mxGeometry x="-100" y="160" width="120" height="60" as="geometry" />
        </mxCell>
        <mxCell id="m_i2i5Q3r4GWPXBIXabM-36" value="&lt;u&gt;Mitarbeiter ID&lt;/u&gt;" style="ellipse;whiteSpace=wrap;html=1;rounded=1;labelBackgroundColor=none;fillColor=#5D7F99;strokeColor=#D0CEE2;fontColor=#1A1A1A;" vertex="1" parent="1">
          <mxGeometry x="190" y="160" width="160" height="60" as="geometry" />
        </mxCell>
        <mxCell id="m_i2i5Q3r4GWPXBIXabM-38" value="Name" style="ellipse;whiteSpace=wrap;html=1;rounded=1;labelBackgroundColor=none;fillColor=#5D7F99;strokeColor=#D0CEE2;fontColor=#1A1A1A;" vertex="1" parent="1">
          <mxGeometry x="-400" y="130" width="180" height="50" as="geometry" />
        </mxCell>
        <mxCell id="m_i2i5Q3r4GWPXBIXabM-40" value="Skillset" style="ellipse;whiteSpace=wrap;html=1;rounded=1;labelBackgroundColor=none;fillColor=#5D7F99;strokeColor=#D0CEE2;fontColor=#1A1A1A;" vertex="1" parent="1">
          <mxGeometry x="-370" y="200" width="150" height="50" as="geometry" />
        </mxCell>
        <mxCell id="m_i2i5Q3r4GWPXBIXabM-42" value="Alter" style="ellipse;whiteSpace=wrap;html=1;rounded=1;labelBackgroundColor=none;fillColor=#5D7F99;strokeColor=#D0CEE2;fontColor=#1A1A1A;" vertex="1" parent="1">
          <mxGeometry x="50" y="100" width="140" height="50" as="geometry" />
        </mxCell>
        <mxCell id="m_i2i5Q3r4GWPXBIXabM-44" value="Telefonnummer" style="ellipse;whiteSpace=wrap;html=1;rounded=1;labelBackgroundColor=none;fillColor=#5D7F99;strokeColor=#D0CEE2;fontColor=#1A1A1A;" vertex="1" parent="1">
          <mxGeometry x="-130" y="60" width="180" height="50" as="geometry" />
        </mxCell>
        <mxCell id="m_i2i5Q3r4GWPXBIXabM-48" value="Email&amp;nbsp;" style="ellipse;whiteSpace=wrap;html=1;rounded=1;labelBackgroundColor=none;fillColor=#5D7F99;strokeColor=#D0CEE2;fontColor=#1A1A1A;" vertex="1" parent="1">
          <mxGeometry x="60" y="240" width="120" height="50" as="geometry" />
        </mxCell>
        <mxCell id="m_i2i5Q3r4GWPXBIXabM-53" value="" style="edgeStyle=orthogonalEdgeStyle;rounded=0;orthogonalLoop=1;jettySize=auto;html=1;labelBackgroundColor=none;fontColor=default;strokeColor=#736CA8;" edge="1" parent="1" source="m_i2i5Q3r4GWPXBIXabM-50" target="m_i2i5Q3r4GWPXBIXabM-52">
          <mxGeometry relative="1" as="geometry" />
        </mxCell>
        <mxCell id="m_i2i5Q3r4GWPXBIXabM-50" value="beinhaltet" style="rhombus;whiteSpace=wrap;html=1;rounded=1;labelBackgroundColor=none;fillColor=#5D7F99;strokeColor=#D0CEE2;fontColor=#1A1A1A;" vertex="1" parent="1">
          <mxGeometry x="120" y="460" width="170" height="80" as="geometry" />
        </mxCell>
        <mxCell id="m_i2i5Q3r4GWPXBIXabM-55" value="" style="edgeStyle=orthogonalEdgeStyle;rounded=0;orthogonalLoop=1;jettySize=auto;html=1;labelBackgroundColor=none;fontColor=default;strokeColor=#736CA8;" edge="1" parent="1" source="m_i2i5Q3r4GWPXBIXabM-52" target="m_i2i5Q3r4GWPXBIXabM-54">
          <mxGeometry relative="1" as="geometry" />
        </mxCell>
        <mxCell id="m_i2i5Q3r4GWPXBIXabM-57" value="" style="edgeStyle=orthogonalEdgeStyle;rounded=0;orthogonalLoop=1;jettySize=auto;html=1;labelBackgroundColor=none;fontColor=default;strokeColor=#736CA8;" edge="1" parent="1" source="m_i2i5Q3r4GWPXBIXabM-52" target="m_i2i5Q3r4GWPXBIXabM-56">
          <mxGeometry relative="1" as="geometry" />
        </mxCell>
        <mxCell id="m_i2i5Q3r4GWPXBIXabM-59" value="" style="edgeStyle=orthogonalEdgeStyle;rounded=0;orthogonalLoop=1;jettySize=auto;html=1;labelBackgroundColor=none;fontColor=default;strokeColor=#736CA8;" edge="1" parent="1" source="m_i2i5Q3r4GWPXBIXabM-52" target="m_i2i5Q3r4GWPXBIXabM-58">
          <mxGeometry relative="1" as="geometry" />
        </mxCell>
        <mxCell id="m_i2i5Q3r4GWPXBIXabM-61" value="" style="edgeStyle=orthogonalEdgeStyle;rounded=0;orthogonalLoop=1;jettySize=auto;html=1;labelBackgroundColor=none;fontColor=default;strokeColor=#736CA8;" edge="1" parent="1" source="m_i2i5Q3r4GWPXBIXabM-52" target="m_i2i5Q3r4GWPXBIXabM-60">
          <mxGeometry relative="1" as="geometry" />
        </mxCell>
        <mxCell id="m_i2i5Q3r4GWPXBIXabM-63" value="" style="edgeStyle=orthogonalEdgeStyle;rounded=0;orthogonalLoop=1;jettySize=auto;html=1;labelBackgroundColor=none;fontColor=default;strokeColor=#736CA8;" edge="1" parent="1" source="m_i2i5Q3r4GWPXBIXabM-52" target="m_i2i5Q3r4GWPXBIXabM-62">
          <mxGeometry relative="1" as="geometry" />
        </mxCell>
        <mxCell id="m_i2i5Q3r4GWPXBIXabM-52" value="Produkt" style="whiteSpace=wrap;html=1;rounded=1;labelBackgroundColor=none;fillColor=#5D7F99;strokeColor=#D0CEE2;fontColor=#1A1A1A;" vertex="1" parent="1">
          <mxGeometry x="395" y="470" width="120" height="60" as="geometry" />
        </mxCell>
        <mxCell id="m_i2i5Q3r4GWPXBIXabM-54" value="&lt;u&gt;ProduktID&lt;/u&gt;" style="ellipse;whiteSpace=wrap;html=1;rounded=1;labelBackgroundColor=none;fillColor=#5D7F99;strokeColor=#D0CEE2;fontColor=#1A1A1A;" vertex="1" parent="1">
          <mxGeometry x="249" y="330" width="165" height="60" as="geometry" />
        </mxCell>
        <mxCell id="m_i2i5Q3r4GWPXBIXabM-56" value="Name" style="ellipse;whiteSpace=wrap;html=1;rounded=1;labelBackgroundColor=none;fillColor=#5D7F99;strokeColor=#D0CEE2;fontColor=#1A1A1A;" vertex="1" parent="1">
          <mxGeometry x="565" y="400" width="165" height="50" as="geometry" />
        </mxCell>
        <mxCell id="m_i2i5Q3r4GWPXBIXabM-58" value="Preis" style="ellipse;whiteSpace=wrap;html=1;rounded=1;labelBackgroundColor=none;fillColor=#5D7F99;strokeColor=#D0CEE2;fontColor=#1A1A1A;" vertex="1" parent="1">
          <mxGeometry x="420" y="330" width="185" height="60" as="geometry" />
        </mxCell>
        <mxCell id="m_i2i5Q3r4GWPXBIXabM-60" value="Dauer" style="ellipse;whiteSpace=wrap;html=1;rounded=1;labelBackgroundColor=none;fillColor=#5D7F99;strokeColor=#D0CEE2;fontColor=#1A1A1A;" vertex="1" parent="1">
          <mxGeometry x="560" y="560" width="175" height="50" as="geometry" />
        </mxCell>
        <mxCell id="m_i2i5Q3r4GWPXBIXabM-62" value="Komponenten" style="ellipse;whiteSpace=wrap;html=1;rounded=1;labelBackgroundColor=none;fillColor=#5D7F99;strokeColor=#D0CEE2;fontColor=#1A1A1A;" vertex="1" parent="1">
          <mxGeometry x="367.5" y="595" width="175" height="60" as="geometry" />
        </mxCell>
        <mxCell id="m_i2i5Q3r4GWPXBIXabM-64" value="n" style="text;strokeColor=none;align=center;fillColor=none;html=1;verticalAlign=middle;whiteSpace=wrap;rounded=0;fontColor=#1A1A1A;" vertex="1" parent="1">
          <mxGeometry x="-500" y="460" width="60" height="30" as="geometry" />
        </mxCell>
        <mxCell id="m_i2i5Q3r4GWPXBIXabM-67" value="m" style="text;strokeColor=none;align=center;fillColor=none;html=1;verticalAlign=middle;whiteSpace=wrap;rounded=0;fontColor=#1A1A1A;" vertex="1" parent="1">
          <mxGeometry x="-150" y="480" width="60" height="20" as="geometry" />
        </mxCell>
        <mxCell id="m_i2i5Q3r4GWPXBIXabM-68" value="1" style="text;strokeColor=none;align=center;fillColor=none;html=1;verticalAlign=middle;whiteSpace=wrap;rounded=0;fontColor=#1A1A1A;" vertex="1" parent="1">
          <mxGeometry y="475" width="60" height="30" as="geometry" />
        </mxCell>
        <mxCell id="m_i2i5Q3r4GWPXBIXabM-69" value="n" style="text;strokeColor=none;align=center;fillColor=none;html=1;verticalAlign=middle;whiteSpace=wrap;rounded=0;fontColor=#1A1A1A;" vertex="1" parent="1">
          <mxGeometry x="-50" y="440" width="60" height="30" as="geometry" />
        </mxCell>
        <mxCell id="m_i2i5Q3r4GWPXBIXabM-70" value="n" style="text;align=center;html=1;verticalAlign=middle;whiteSpace=wrap;rounded=0;" vertex="1" parent="1">
          <mxGeometry x="350" y="470" width="60" height="30" as="geometry" />
        </mxCell>
        <mxCell id="m_i2i5Q3r4GWPXBIXabM-71" value="m" style="text;strokeColor=none;align=center;fillColor=none;html=1;verticalAlign=middle;whiteSpace=wrap;rounded=0;fontColor=#1A1A1A;" vertex="1" parent="1">
          <mxGeometry x="-20" y="220" width="60" height="30" as="geometry" />
        </mxCell>
      </root>
    </mxGraphModel>
  </diagram>
</mxfile>
